<?xml version="1.0" encoding="UTF-8" standalone="no"?>
<!-- Created with Inkscape (http://www.inkscape.org/) -->

<svg
   xmlns:dc="http://purl.org/dc/elements/1.1/"
   xmlns:cc="http://creativecommons.org/ns#"
   xmlns:rdf="http://www.w3.org/1999/02/22-rdf-syntax-ns#"
   xmlns:svg="http://www.w3.org/2000/svg"
   xmlns="http://www.w3.org/2000/svg"
   xmlns:xlink="http://www.w3.org/1999/xlink"
   xmlns:sodipodi="http://sodipodi.sourceforge.net/DTD/sodipodi-0.dtd"
   xmlns:inkscape="http://www.inkscape.org/namespaces/inkscape"
   width="744.09448819"
   height="1052.3622047"
   id="svg6959"
   version="1.1"
   inkscape:version="0.48.4 r9939"
   sodipodi:docname="promo.svg">
  <sodipodi:namedview
     id="base"
     pagecolor="#ffffff"
     bordercolor="#666666"
     borderopacity="1.0"
     inkscape:pageopacity="0.0"
     inkscape:pageshadow="2"
     inkscape:zoom="4.2327103"
     inkscape:cx="183.96473"
     inkscape:cy="775.63759"
     inkscape:document-units="px"
     inkscape:current-layer="layer3"
     showgrid="false"
     inkscape:window-width="1440"
     inkscape:window-height="852"
     inkscape:window-x="0"
     inkscape:window-y="22"
     inkscape:window-maximized="0" />
  <defs
     id="defs6961">
    <linearGradient
       id="linearGradient6578">
      <stop
         style="stop-color:#ffffff;stop-opacity:0.53043479;"
         offset="0"
         id="stop6580" />
      <stop
         style="stop-color:#000000;stop-opacity:0.16521738;"
         offset="1"
         id="stop6582" />
    </linearGradient>
    <linearGradient
       inkscape:collect="always"
       id="linearGradient6568">
      <stop
         style="stop-color:#000000;stop-opacity:1;"
         offset="0"
         id="stop6570" />
      <stop
         style="stop-color:#000000;stop-opacity:0;"
         offset="1"
         id="stop6572" />
    </linearGradient>
    <linearGradient
       id="linearGradient8150">
      <stop
         style="stop-color:#a3a3a3;stop-opacity:1;"
         offset="0"
         id="stop8152" />
      <stop
         style="stop-color:#8d8d8d;stop-opacity:1;"
         offset="1"
         id="stop8154" />
    </linearGradient>
    <linearGradient
       id="linearGradient7896">
      <stop
         id="stop7898"
         offset="0"
         style="stop-color:#ffffff;stop-opacity:1;" />
      <stop
         style="stop-color:#dcdcdc;stop-opacity:1;"
         offset="0.00000008"
         id="stop5759" />
      <stop
         style="stop-color:#e6e6e6;stop-opacity:1;"
         offset="0.43150684"
         id="stop5757" />
      <stop
         style="stop-color:#f0f0f0;stop-opacity:1;"
         offset="0.86301368"
         id="stop8158" />
      <stop
         id="stop5755"
         offset="1"
         style="stop-color:#fbfbfb;stop-opacity:0;" />
    </linearGradient>
    <linearGradient
       id="linearGradient7817">
      <stop
         id="stop7819"
         offset="0"
         style="stop-color:#ffffff;stop-opacity:0.36923078;" />
      <stop
         id="stop7821"
         offset="1"
         style="stop-color:#ffffff;stop-opacity:0;" />
    </linearGradient>
    <linearGradient
       id="linearGradient7758">
      <stop
         id="stop7760"
         offset="0"
         style="stop-color:#969ce2;stop-opacity:1;" />
      <stop
         id="stop7762"
         offset="1"
         style="stop-color:#5e6291;stop-opacity:1;" />
    </linearGradient>
    <linearGradient
       id="linearGradient7752">
      <stop
         style="stop-color:#ffffff;stop-opacity:0.10769231;"
         offset="0"
         id="stop7754" />
      <stop
         style="stop-color:#ffffff;stop-opacity:0;"
         offset="1"
         id="stop7756" />
    </linearGradient>
    <linearGradient
       id="linearGradient7740">
      <stop
         id="stop7742"
         offset="0"
         style="stop-color:#ffffff;stop-opacity:0.33846155;" />
      <stop
         id="stop7744"
         offset="1"
         style="stop-color:#ffffff;stop-opacity:0;" />
    </linearGradient>
    <linearGradient
       id="linearGradient7708">
      <stop
         id="stop7710"
         offset="0"
         style="stop-color:#c0c0c0;stop-opacity:0.63846153;" />
      <stop
         id="stop7712"
         offset="1"
         style="stop-color:#acacac;stop-opacity:0;" />
    </linearGradient>
    <linearGradient
       id="linearGradient6916">
      <stop
         id="stop6918"
         offset="0"
         style="stop-color:#393939;stop-opacity:0.27692309;" />
      <stop
         id="stop6920"
         offset="1"
         style="stop-color:#ffffff;stop-opacity:0.6769231;" />
    </linearGradient>
    <filter
       id="filter6903"
       inkscape:collect="always"
       color-interpolation-filters="sRGB">
      <feGaussianBlur
         id="feGaussianBlur6905"
         stdDeviation="1.0873942"
         inkscape:collect="always" />
    </filter>
    <filter
       height="2.1871428"
       y="-0.59357142"
       width="1.5166839"
       x="-0.25834197"
       id="filter5474"
       inkscape:collect="always"
       color-interpolation-filters="sRGB">
      <feGaussianBlur
         id="feGaussianBlur5476"
         stdDeviation="2.9678571"
         inkscape:collect="always" />
    </filter>
    <filter
       id="filter5357"
       inkscape:collect="always"
       color-interpolation-filters="sRGB">
      <feGaussianBlur
         id="feGaussianBlur5359"
         stdDeviation="0.6727616"
         inkscape:collect="always" />
    </filter>
    <linearGradient
       id="linearGradient5295">
      <stop
         id="stop5297"
         offset="0"
         style="stop-color:#b5b5f1;stop-opacity:1;" />
      <stop
         id="stop5299"
         offset="1"
         style="stop-color:#9e9ebf;stop-opacity:1;" />
    </linearGradient>
    <linearGradient
       id="linearGradient5189">
      <stop
         id="stop5191"
         offset="0"
         style="stop-color:#e7e7ff;stop-opacity:1;" />
      <stop
         id="stop5193"
         offset="1"
         style="stop-color:#a4a4ff;stop-opacity:1;" />
    </linearGradient>
    <filter
       height="1.2414196"
       y="-0.1207098"
       width="1.7946357"
       x="-0.39731783"
       id="filter5486"
       inkscape:collect="always"
       color-interpolation-filters="sRGB">
      <feGaussianBlur
         id="feGaussianBlur5488"
         stdDeviation="2.9602638"
         inkscape:collect="always" />
    </filter>
    <filter
       height="1.0547484"
       y="-0.027374189"
       width="1.4314153"
       x="-0.21570764"
       id="filter5247"
       inkscape:collect="always"
       color-interpolation-filters="sRGB">
      <feGaussianBlur
         id="feGaussianBlur5249"
         stdDeviation="0.57681329"
         inkscape:collect="always" />
    </filter>
    <filter
       height="1.1075702"
       y="-0.053785123"
       width="1.3833605"
       x="-0.19168024"
       id="filter5518"
       inkscape:collect="always"
       color-interpolation-filters="sRGB">
      <feGaussianBlur
         id="feGaussianBlur5520"
         stdDeviation="1.1333294"
         inkscape:collect="always" />
    </filter>
    <filter
       height="1.1193079"
       y="-0.059653971"
       width="1.5235616"
       x="-0.26178083"
       id="filter5267"
       inkscape:collect="always"
       color-interpolation-filters="sRGB">
      <feGaussianBlur
         id="feGaussianBlur5269"
         stdDeviation="1.1220626"
         inkscape:collect="always" />
    </filter>
    <filter
       height="1.9734533"
       y="-0.48672667"
       width="1.1891544"
       x="-0.094577216"
       id="filter5281"
       inkscape:collect="always"
       color-interpolation-filters="sRGB">
      <feGaussianBlur
         id="feGaussianBlur5283"
         stdDeviation="1.463695"
         inkscape:collect="always" />
    </filter>
    <filter
       height="1.3835514"
       y="-0.19177569"
       width="1.64125"
       x="-0.32062498"
       id="filter5291"
       inkscape:collect="always"
       color-interpolation-filters="sRGB">
      <feGaussianBlur
         id="feGaussianBlur5293"
         stdDeviation="2.4428572"
         inkscape:collect="always" />
    </filter>
    <filter
       height="1.1439027"
       y="-0.07195136"
       width="1.7224419"
       x="-0.36122096"
       id="filter5388"
       inkscape:collect="always"
       color-interpolation-filters="sRGB">
      <feGaussianBlur
         id="feGaussianBlur5390"
         stdDeviation="0.90852323"
         inkscape:collect="always" />
    </filter>
    <linearGradient
       spreadMethod="reflect"
       gradientUnits="userSpaceOnUse"
       y2="131.12082"
       x2="310.63354"
       y1="129.98412"
       x1="304.78738"
       id="linearGradient7823"
       xlink:href="#linearGradient7817"
       inkscape:collect="always" />
    <filter
       height="1.1198325"
       y="-0.059916265"
       width="1.6854282"
       x="-0.34271409"
       id="filter7884"
       inkscape:collect="always">
      <feGaussianBlur
         id="feGaussianBlur7886"
         stdDeviation="2.826116"
         inkscape:collect="always" />
    </filter>
    <linearGradient
       inkscape:collect="always"
       xlink:href="#linearGradient8150"
       id="linearGradient8156"
       x1="243.76136"
       y1="283.50686"
       x2="268.13317"
       y2="283.50686"
       gradientUnits="userSpaceOnUse" />
    <linearGradient
       inkscape:collect="always"
       xlink:href="#linearGradient7896"
       id="linearGradient8160"
       gradientUnits="userSpaceOnUse"
       gradientTransform="matrix(1,0,0,1.0231959,0,-11.586994)"
       x1="194.45436"
       y1="277.48129"
       x2="194.45436"
       y2="314.59158" />
    <radialGradient
       inkscape:collect="always"
       xlink:href="#linearGradient5189"
       id="radialGradient8162"
       gradientUnits="userSpaceOnUse"
       gradientTransform="matrix(0.39306489,0,0,0.56990339,145.27959,138.30484)"
       cx="19.767445"
       cy="230.14432"
       fx="19.767445"
       fy="230.14432"
       r="41.868568" />
    <linearGradient
       inkscape:collect="always"
       xlink:href="#linearGradient7758"
       id="linearGradient8164"
       gradientUnits="userSpaceOnUse"
       x1="138.28097"
       y1="282.03322"
       x2="170.31283"
       y2="282.03322"
       gradientTransform="translate(4.7982247,-2.5253813)" />
    <linearGradient
       inkscape:collect="always"
       xlink:href="#linearGradient5295"
       id="linearGradient8166"
       gradientUnits="userSpaceOnUse"
       gradientTransform="matrix(0.39306489,0,0,0.39306489,145.27959,182.11952)"
       x1="32.785713"
       y1="189.01443"
       x2="31.499998"
       y2="194.72871" />
    <filter
       inkscape:collect="always"
       id="filter8720">
      <feGaussianBlur
         inkscape:collect="always"
         stdDeviation="0.5502176"
         id="feGaussianBlur8722" />
    </filter>
    <filter
       inkscape:collect="always"
       id="filter8752">
      <feGaussianBlur
         inkscape:collect="always"
         stdDeviation="0.87753917"
         id="feGaussianBlur8754" />
    </filter>
    <filter
       inkscape:collect="always"
       id="filter8792"
       x="-0.28544421"
       width="1.5708884"
       y="-0.057703332"
       height="1.1154067">
      <feGaussianBlur
         inkscape:collect="always"
         stdDeviation="0.65261304"
         id="feGaussianBlur8794" />
    </filter>
    <filter
       inkscape:collect="always"
       id="filter8828"
       x="-0.57795352"
       width="2.155907"
       y="-0.11512218"
       height="1.2302444">
      <feGaussianBlur
         inkscape:collect="always"
         stdDeviation="1.4536372"
         id="feGaussianBlur8830" />
    </filter>
    <radialGradient
       inkscape:collect="always"
       xlink:href="#linearGradient8150"
       id="radialGradient8832"
       cx="258.09012"
       cy="292.00372"
       fx="258.09012"
       fy="292.00372"
       r="12.185902"
       gradientTransform="matrix(1,0,0,0.37829125,0,176.2587)"
       gradientUnits="userSpaceOnUse" />
    <linearGradient
       inkscape:collect="always"
       xlink:href="#linearGradient6568"
       id="linearGradient6574"
       x1="124.45686"
       y1="288.39401"
       x2="113.72111"
       y2="232.63777"
       gradientUnits="userSpaceOnUse" />
    <radialGradient
       inkscape:collect="always"
       xlink:href="#linearGradient6578"
       id="radialGradient6576"
       cx="134.28384"
       cy="260.72598"
       fx="134.28384"
       fy="260.72598"
       r="30.946461"
       gradientTransform="matrix(2.8698993,-0.02233021,0.01356151,1.7429357,-249.7045,-190.33493)"
       gradientUnits="userSpaceOnUse" />
  </defs>
  <metadata
     id="metadata6964">
    <rdf:RDF>
      <cc:Work
         rdf:about="">
        <dc:format>image/svg+xml</dc:format>
        <dc:type
           rdf:resource="http://purl.org/dc/dcmitype/StillImage" />
        <dc:title></dc:title>
      </cc:Work>
    </rdf:RDF>
  </metadata>
  <g
     inkscape:label="background"
     id="layer3"
     inkscape:groupmode="layer">
    <rect
       inkscape:export-ydpi="338.6611"
       inkscape:export-xdpi="338.6611"
       inkscape:export-filename="/Users/alump/Projects/BtTagWriter2/app/src/main/res/drawable-hdpi/start.png"
       ry="0"
       y="209.89496"
       x="85.862968"
       height="100.25763"
       width="191.4239"
       id="rect7719"
       style="fill:url(#linearGradient8160);fill-opacity:1;fill-rule:evenodd;stroke:none" />
  </g>
  <g
     inkscape:label="2nd bl"
     id="layer4"
     inkscape:groupmode="layer"
     sodipodi:insensitive="true" />
  <g
     id="layer1"
     inkscape:groupmode="layer"
     inkscape:label="Layer 1">
    <path
       style="fill:url(#linearGradient6574);fill-opacity:1;fill-rule:evenodd;stroke:none;filter:url(#filter8752);opacity:0.20192308000000000"
       d="m 88.13986,244.79489 31.08633,1.10434 c 2.22526,0.0791 6.55829,20.51698 8.85172,22.84495 l 25.08047,25.45814 c 2.02512,2.05561 1.47161,3.57173 -1.25119,3.41539 l -33.72339,-1.93649 c -3.15138,-0.18094 -7.66836,-2.1318 -10.11592,-4.39328 L 87.151229,272.47548 86.55253,248.70165 c -0.09615,-3.8181 -2.090321,-4.34375 1.58733,-3.90676 l 0,0"
       id="path8458"
       inkscape:connector-curvature="0"
       sodipodi:nodetypes="csssssscscc" />
    <path
       transform="matrix(0.6367583,0,0,0.64203406,-63.848259,-360.59227)"
       inkscape:connector-curvature="0"
       id="path6895"
       d="m 265.40625,910.125 c -8.10463,0.70022 -10.06747,10.64331 -7.90391,17.1205 4.11251,28.40564 7.11953,57.04893 11.87266,85.317 2.48715,7.9791 10.56785,13.3558 18.96631,11.9998 20.13043,0.3343 40.36456,1.8135 60.43994,1.5315 8.57767,-2.7567 7.15352,-13.8318 5.44158,-20.6022 -3.97029,-23.77765 -7.1052,-47.76973 -11.53533,-71.4291 -2.20851,-7.52682 -9.39723,-12.69064 -17.26373,-12.68142 -19.85426,-3.62557 -39.60106,-8.22192 -59.51752,-11.28733 l -0.5,0.0312 z"
       style="fill:#000000;fill-opacity:0.27397263;fill-rule:evenodd;stroke:none;filter:url(#filter6903)" />
    <path
       style="fill:#ffffff;fill-opacity:1;fill-rule:evenodd;stroke:#d7d7d7;stroke-width:0.50069016;stroke-linecap:round;stroke-miterlimit:4;stroke-opacity:1"
       d="m 107.11364,223.84461 c 0,0 40.96705,7.98579 40.96705,7.98579 3.19905,0.62365 6.2583,4.42657 6.90759,8.54895 0,0 7.73027,49.07993 7.73027,49.07993 0.67936,4.3133 -1.31335,7.71721 -4.51777,7.61649 0,0 -41.16444,-1.29431 -41.16444,-1.29431 -3.99197,-0.12547 -7.79647,-4.20338 -8.46012,-9.12276 0,0 -7.52751,-55.79838 -7.52751,-55.79838 -0.63026,-4.67189 2.10475,-7.78768 6.06493,-7.01571 0,0 0,0 0,0"
       id="rect6152"
       inkscape:connector-curvature="0" />
    <path
       style="fill:none;stroke:#d4d4d4;stroke-width:0.50069016;stroke-linecap:round;stroke-miterlimit:4;stroke-opacity:1"
       d="m 109.14012,226.71246 c 0,0 38.11663,7.21402 38.11663,7.21402 2.99807,0.5674 5.86495,4.11565 6.4703,7.97481 0,0 7.19653,45.8787 7.19653,45.8787 0.63152,4.02598 -1.24279,7.1888 -4.24605,7.07757 0,0 -38.2863,-1.41763 -38.2863,-1.41763 -3.68407,-0.13638 -7.1957,-3.92291 -7.81368,-8.47195 0,0 -7.02277,-51.69728 -7.02277,-51.69728 -0.58912,-4.33676 1.92769,-7.25053 5.58534,-6.55824 0,0 0,0 0,0"
       id="rect6154"
       inkscape:connector-curvature="0" />
    <path
       style="fill:none;stroke:#d4d4d4;stroke-width:0.50069016;stroke-linecap:round;stroke-miterlimit:4;stroke-opacity:1"
       d="m 110.85031,229.16405 c 0,0 35.53848,6.55197 35.53848,6.55197 2.81377,0.51874 5.504,3.83493 6.0691,7.45202 0,0 6.70899,42.94285 6.70899,42.94285 0.58793,3.76328 -1.17721,6.70657 -3.99596,6.58698 0,0 -35.6855,-1.51384 -35.6855,-1.51384 -3.40967,-0.14462 -6.65991,-3.66818 -7.23607,-7.88463 0,0 -6.55884,-47.99945 -6.55884,-47.99945 -0.55114,-4.03342 1.7723,-6.76045 5.1598,-6.1359 0,0 0,0 0,0"
       id="rect6156"
       inkscape:connector-curvature="0" />
    <path
       style="fill:none;stroke:#d4d4d4;stroke-width:0.50069016;stroke-linecap:round;stroke-miterlimit:4;stroke-opacity:1"
       d="m 112.43428,231.43465 c 0,0 33.14107,5.9585 33.14107,5.9585 2.64011,0.47465 5.16395,3.57399 5.69152,6.96365 0,0 6.25544,40.19145 6.25544,40.19145 0.5475,3.5177 -1.11397,6.25746 -3.75881,6.13205 0,0 -33.26854,-1.57772 -33.26854,-1.57772 -3.158,-0.1497 -6.16849,-3.42951 -6.70574,-7.34007 0,0 -6.12556,-44.58771 -6.12556,-44.58771 -0.51555,-3.75263 1.63126,-6.30455 4.77062,-5.74015 0,0 0,0 0,0"
       id="rect6158"
       inkscape:connector-curvature="0" />
    <path
       style="fill:none;stroke:#d4d4d4;stroke-width:0.50069016;stroke-linecap:round;stroke-miterlimit:4;stroke-opacity:1"
       d="m 113.91293,233.5543 c 0,0 30.89464,5.42186 30.89464,5.42186 2.47539,0.43442 4.84146,3.32957 5.33377,6.50402 0,0 5.83035,37.5948 5.83035,37.5948 0.50968,3.28646 -1.05274,5.83603 -3.53256,5.70684 0,0 -31.00513,-1.61522 -31.00513,-1.61522 -2.9252,-0.15245 -5.71389,-3.20456 -6.21465,-6.83144 0,0 -5.718,-41.41426 -5.718,-41.41426 -0.48195,-3.49064 1.50208,-5.87718 4.41158,-5.36653 0,0 0,0 0,0"
       id="rect6160"
       inkscape:connector-curvature="0" />
    <path
       style="fill:none;stroke:#d4d4d4;stroke-width:0.50069016;stroke-linecap:round;stroke-miterlimit:4;stroke-opacity:1"
       d="m 115.38441,235.6637 c 0,0 28.65087,4.90462 28.65087,4.90462 2.30892,0.39529 4.51558,3.08568 4.97258,6.04314 0,0 5.40571,34.98305 5.40571,34.98305 0.47199,3.05446 -0.98961,5.41461 -3.30262,5.28339 0,0 -28.74568,-1.63141 -28.74568,-1.63141 -2.69553,-0.15297 -5.26543,-2.97843 -5.72974,-6.32485 0,0 -5.3095,-38.26704 -5.3095,-38.26704 -0.44817,-3.2301 1.37592,-5.45014 4.05838,-4.9909 0,0 0,0 0,0"
       id="rect6162"
       inkscape:connector-curvature="0" />
    <path
       style="fill:none;stroke:#d4d4d4;stroke-width:0.50069016;stroke-linecap:round;stroke-miterlimit:4;stroke-opacity:1"
       d="m 116.78016,237.93077 c 0,0 26.28222,4.3747 26.28222,4.3747 2.13106,0.35474 4.16719,2.82697 4.58651,5.5523 0,0 4.95355,32.19515 4.95355,32.19515 0.43196,2.80749 -0.92151,4.9677 -3.05629,4.83629 0,0 -26.36211,-1.62273 -26.36211,-1.62273 -2.45613,-0.15114 -4.79761,-2.73701 -5.22306,-5.78918 0,0 -4.87263,-34.95596 -4.87263,-34.95596 -0.41193,-2.95518 1.24633,-4.99762 3.69181,-4.59057 0,0 0,0 0,0"
       id="rect6164"
       inkscape:connector-curvature="0" />
    <path
       style="fill:none;stroke:#d4d4d4;stroke-width:0.50069016;stroke-linecap:round;stroke-miterlimit:4;stroke-opacity:1"
       d="m 118.2883,240.20914 c 0,0 23.8964,3.86412 23.8964,3.86412 1.9496,0.31522 3.81205,2.56747 4.19358,5.05733 0,0 4.50138,29.37603 4.50138,29.37603 0.39201,2.55825 -0.85007,4.51845 -2.80298,4.38887 0,0 -23.96238,-1.58981 -23.96238,-1.58981 -2.21816,-0.14716 -4.33285,-2.49331 -4.71947,-5.25326 0,0 -4.43466,-31.65728 -4.43466,-31.65728 -0.37548,-2.68032 1.11847,-4.54335 3.32813,-4.186 0,0 0,0 0,0"
       id="rect6171"
       inkscape:connector-curvature="0" />
    <path
       style="fill:#ffffff;fill-opacity:1;stroke:none"
       d="m 116.01806,242.2188 c 0,0 -11.31988,-15.91287 -11.31988,-15.91287 0,0 2.75378,-0.87073 2.75378,-0.87073 0,0 10.73327,17.39927 10.73327,17.39927 0,0 -2.16717,-0.61567 -2.16717,-0.61567"
       id="path6173"
       inkscape:connector-curvature="0"
       sodipodi:nodetypes="ccccc" />
    <path
       style="fill:none;stroke:#c8c8c8;stroke-width:0.50069016px;stroke-linecap:butt;stroke-linejoin:miter;stroke-opacity:1"
       d="m 116.96088,240.28445 c 0,0 1.04552,7.81512 1.04552,7.81512"
       id="path6187"
       inkscape:connector-curvature="0"
       sodipodi:nodetypes="cc" />
    <path
       style="fill:none;stroke:#c9c9c9;stroke-width:0.50069016px;stroke-linecap:butt;stroke-linejoin:miter;stroke-opacity:1"
       d="m 108.2406,226.41789 c 0,0 -1.94386,4.52584 -1.94386,4.52584"
       id="path6175"
       inkscape:connector-curvature="0"
       sodipodi:nodetypes="cc" />
    <path
       inkscape:connector-curvature="0"
       id="path6177"
       d="m 109.93211,228.81422 c 0,0 -1.88409,4.40207 -1.88409,4.40207"
       style="fill:none;stroke:#c9c9c9;stroke-width:0.50069016px;stroke-linecap:butt;stroke-linejoin:miter;stroke-opacity:1" />
    <path
       style="fill:none;stroke:#c9c9c9;stroke-width:0.50069016px;stroke-linecap:butt;stroke-linejoin:miter;stroke-opacity:1"
       d="m 111.31511,231.14556 c 0,0 -1.83314,5.54256 -1.83314,5.54256"
       id="path6179"
       inkscape:connector-curvature="0"
       sodipodi:nodetypes="cc" />
    <path
       inkscape:connector-curvature="0"
       id="path6181"
       d="m 112.43409,233.28539 c 0,0 -1.23447,5.50997 -1.23447,5.50997"
       style="fill:none;stroke:#c9c9c9;stroke-width:0.50069016px;stroke-linecap:butt;stroke-linejoin:miter;stroke-opacity:1"
       sodipodi:nodetypes="cc" />
    <path
       style="fill:none;stroke:#c9c9c9;stroke-width:0.50069016px;stroke-linecap:butt;stroke-linejoin:miter;stroke-opacity:1"
       d="m 113.96861,235.49205 c 0,0 -0.9397,5.41885 -0.9397,5.41885"
       id="path6183"
       inkscape:connector-curvature="0"
       sodipodi:nodetypes="cc" />
    <path
       inkscape:connector-curvature="0"
       id="path6185"
       d="m 115.43752,237.67982 c 0,0 -0.70976,4.47719 -0.70976,4.47719"
       style="fill:none;stroke:#c9c9c9;stroke-width:0.50069016px;stroke-linecap:butt;stroke-linejoin:miter;stroke-opacity:1"
       sodipodi:nodetypes="cc" />
    <path
       style="fill:#d0d0d0;fill-opacity:1;stroke:none"
       d="m 103.36411,229.85556 c 0.59741,0.81267 12.65832,14.87616 12.65832,14.87616 0,0 0.72427,5.15432 0.72427,5.15432 0,0 5.63906,0.78119 5.63906,0.78119 0,0 -0.46485,-3.25342 -0.46485,-3.25342 0,0 -4.80587,-0.70196 -4.80587,-0.70196 0,0 -0.30149,-2.14029 -0.30149,-2.14029 0,0 0.50916,-1.31521 0.50916,-1.31521 0,0 -11.59726,-16.47772 -11.59726,-16.47772 0,0 -2.36134,3.07693 -2.36134,3.07693"
       id="path6166"
       inkscape:connector-curvature="0"
       sodipodi:nodetypes="cccccccccc" />
    <path
       inkscape:connector-curvature="0"
       id="path6914"
       d="m 106.8611,223.59207 c 0,0 40.96705,7.98579 40.96705,7.98579 3.19905,0.62365 6.2583,4.42657 6.90759,8.54895 0,0 7.73027,49.07993 7.73027,49.07993 0.67936,4.3133 -1.31335,7.71721 -4.51777,7.61649 0,0 -41.16444,-1.29431 -41.16444,-1.29431 -3.99197,-0.12547 -7.79647,-4.20338 -8.46012,-9.12276 0,0 -7.52751,-55.79838 -7.52751,-55.79838 -0.63026,-4.67189 2.10475,-7.78768 6.06493,-7.01571 0,0 0,0 0,0"
       style="fill:url(#radialGradient6576);fill-opacity:1;fill-rule:evenodd;stroke:none" />
    <path
       sodipodi:type="arc"
       style="fill:#000000;fill-opacity:0.30593609;fill-rule:evenodd;stroke:none;filter:url(#filter5474)"
       id="path6189"
       sodipodi:cx="39.642857"
       sodipodi:cy="75.285713"
       sodipodi:rx="13.785714"
       sodipodi:ry="6"
       d="m 53.428571,75.285713 a 13.785714,6 0 1 1 -27.571429,0 13.785714,6 0 1 1 27.571429,0 z"
       transform="matrix(0.84302653,0,0,0.84302653,123.7225,233.91914)" />
    <path
       transform="matrix(0.99472108,0.10261565,-0.10787645,1.0457174,37.413394,-28.064203)"
       inkscape:connector-curvature="0"
       id="path8168"
       d="m 154.47776,256.10948 c -0.27394,-0.002 -0.55754,0.009 -0.84386,0.037 -1.89146,0.5804 -2.89927,1.43832 -3.79738,2.26083 -2.32802,-1.5447 -4.52172,-2.03682 -6.36413,-1.63076 -1.85657,0.40915 -3.36271,1.737 -4.39511,3.74335 -1.38859,-0.34351 -2.98911,-0.58587 -6.01252,-0.25944 -2.4377,1.16208 -3.55152,8.99864 1.86353,17.01185 1.80752,10.4226 5.37296,18.79519 11.95471,21.08878 3.10408,-2.20513 3.45066,0.64054 4.6067,-13.44284 1.12925,4.21864 -6.70633,3.171 -5.69669,7.25334 1.84966,3.61427 3.51173,5.80568 5.23898,7.41257 l 2.56674,-10.85942 c 0.17281,-1.51091 0.51739,-3.08246 1.12515,-4.66992 l 5.83672,-24.60974 c -1.52896,-1.99955 -3.53999,-3.31026 -6.08284,-3.33566 z"
       style="fill:#000000;fill-opacity:0.21004567;stroke:none;filter:url(#filter8720)"
       sodipodi:nodetypes="cccccccccccccccc" />
    <path
       sodipodi:nodetypes="cc"
       inkscape:connector-curvature="0"
       id="path6191"
       d="m 160.21605,282.29491 c 0.031,17.64817 4.65154,21.4106 7.97359,-0.33692"
       style="fill:#6a6a98;fill-opacity:1;stroke:#5d618c;stroke-width:0.57449007;stroke-linecap:butt;stroke-linejoin:miter;stroke-miterlimit:4;stroke-opacity:1;stroke-dasharray:none" />
    <path
       sodipodi:nodetypes="cccccc"
       inkscape:connector-curvature="0"
       id="path6193"
       d="m 227.06716,128.88272 10.30356,-35.759396 -2.6264,-10.90965 -16.76853,17.37463 0.80812,26.870046 z"
       style="fill:#000000;fill-opacity:0.13242008;stroke:none;filter:url(#filter5357)"
       transform="matrix(0.39306485,0,0,0.39306485,73.180261,245.68372)" />
    <path
       sodipodi:nodetypes="cc"
       inkscape:connector-curvature="0"
       id="path6195"
       d="m 152.69166,259.04793 c 3.12462,-5.47019 8.51033,-6.16875 13.13959,0"
       style="fill:url(#linearGradient8166);fill-opacity:1;stroke:#9498d9;stroke-width:0.57449007;stroke-linecap:butt;stroke-linejoin:miter;stroke-miterlimit:4;stroke-opacity:1;stroke-dasharray:none" />
    <path
       sodipodi:nodetypes="cccccccccccccc"
       inkscape:connector-curvature="0"
       id="path6197"
       d="m 153.85598,298.88414 c -6.63258,-2.48388 -8.74877,-12.19824 -8.39832,-24.04794 -4.24519,-9.45716 -1.17947,-17.7367 1.72778,-18.51641 4.93003,0.30576 6.1366,1.35619 8.25876,2.22352 2.1439,-1.16586 4.54904,-0.76436 6.98818,-0.15882 1.69268,-0.9007 2.63917,-2.1745 5.39995,-2.54116 7.81713,0.64814 8.00884,14.88127 5.71761,21.28218 0.21175,3.91761 0.42352,7.83522 0.63526,11.75284 -1.71608,10.23283 -4.6666,11.41302 -7.62345,12.54695 -0.17707,-6.41191 0.40067,-12.57222 -1.4294,-19.53513 -6.23844,10.11304 -2.47583,20.28521 -3.81172,21.28217 -2.95294,-2.0254 -5.30705,-4.26205 -7.3796,-11.27636 -0.22352,-4.54734 -0.40269,-6.2982 -0.72034,-10.95875 -4.20317,15.76955 4.2749,15.39115 0.63529,17.94691 z"
       style="fill:url(#radialGradient8162);fill-opacity:1;stroke:url(#linearGradient8164);stroke-width:0.57449007;stroke-linecap:butt;stroke-linejoin:miter;stroke-miterlimit:4;stroke-opacity:1;stroke-dasharray:none" />
    <path
       sodipodi:nodetypes="cc"
       inkscape:connector-curvature="0"
       id="path6199"
       d="m 151.00709,260.50788 c 5.166,-2.96694 10.33199,-4.2017 15.49799,0.56152"
       style="fill:none;stroke:#9393d7;stroke-width:0.57449007;stroke-linecap:round;stroke-linejoin:miter;stroke-miterlimit:4;stroke-opacity:1;stroke-dasharray:none" />
    <path
       sodipodi:nodetypes="ccccc"
       inkscape:connector-curvature="0"
       id="path6201"
       d="m 238,28.857134 c 10.72648,15.61841 8.90467,28.02044 5.42857,50.57144 5.48115,17.66209 3.63685,39.585656 -4.57143,62.571416 14.09316,-6.27451 21.66289,-23.33775 16,-62.285706 9.35844,-37.796 -5.68982,-51.96407 -16.85714,-50.85715 z"
       style="fill:#ffffff;fill-opacity:0.27853884;stroke:none;filter:url(#filter7884)"
       transform="matrix(0.39306485,0,0,0.39306485,73.180261,245.68372)" />
    <path
       sodipodi:nodetypes="ccc"
       inkscape:connector-curvature="0"
       id="path6203"
       d="m 223.42857,146.85714 c -6.22264,-5.67696 -10.87395,-55.334826 12.85714,-58.857136 -9.5093,17.520946 -13.16812,38.314566 -12.85714,58.857136 z"
       style="fill:#ffffff;fill-opacity:0.34246575;stroke:none;filter:url(#filter5486)"
       transform="matrix(0.39306485,0,0,0.39306485,73.180261,245.68372)" />
    <path
       sodipodi:nodetypes="ccc"
       inkscape:connector-curvature="0"
       id="path6205"
       d="m 239.06607,139.64173 c 3.51768,-16.30272 1.43526,-49.231486 -2.78036,-50.571422 1.27644,17.367692 0.62172,34.862642 2.78036,50.571422 z"
       style="fill:#000000;fill-opacity:0.1461187;stroke:none;filter:url(#filter5247)"
       transform="matrix(0.69665423,0,0,0.39306485,0.76492766,245.93626)" />
    <path
       transform="matrix(-0.39306485,0,0,0.39306485,170.62787,191.16029)"
       style="fill:#000000;fill-opacity:0.13242008;stroke:none;filter:url(#filter5518)"
       d="m 23.985213,283.65652 c 20.72282,-9.70122 21.060888,-27.74027 17.780452,-54.26391 -3.392954,24.5622 -6.236121,41.5305 -17.780452,54.26391 z"
       id="path6207"
       inkscape:connector-curvature="0"
       sodipodi:nodetypes="ccc" />
    <path
       sodipodi:nodetypes="ccc"
       inkscape:connector-curvature="0"
       id="path6209"
       d="m 206,134.57142 c -9.49176,-15.6234 -14.34079,-43.025136 -2,-47.142846 -3.93297,6.82791 -2.42615,31.860706 2,47.142846 z"
       style="fill:#ffffff;fill-opacity:0.20547946;stroke:none;filter:url(#filter5267)"
       transform="matrix(0.39306485,0,0,0.39306485,73.180261,245.68372)" />
    <path
       sodipodi:nodetypes="ccc"
       inkscape:connector-curvature="0"
       id="path6211"
       d="m 197.14286,41.714284 c 11.4573,-7.77789 24.76664,-10.34137 37.14285,-2.28572 -15.87293,-6.20615 -25.44268,0.13559 -37.14285,2.28572 z"
       style="fill:#ffffff;fill-opacity:0.58447487;stroke:none;filter:url(#filter5281)"
       transform="matrix(0.39306485,0,0,0.39306485,73.180261,245.68372)" />
    <path
       transform="matrix(0.49594195,0,0,0.54070603,179.62719,140.63095)"
       d="m -25.142856,237.85715 a 9.1428576,15.285714 0 1 1 -18.285715,0 9.1428576,15.285714 0 1 1 18.285715,0 z"
       sodipodi:ry="15.285714"
       sodipodi:rx="9.1428576"
       sodipodi:cy="237.85715"
       sodipodi:cx="-34.285713"
       id="path6213"
       style="fill:#ffffff;fill-opacity:0.36986299;fill-rule:evenodd;stroke:none;filter:url(#filter5291)"
       sodipodi:type="arc" />
    <path
       sodipodi:nodetypes="cccc"
       inkscape:connector-curvature="0"
       id="path6215"
       d="m 239.18899,45.242094 c 3.40071,9.16838 4.51852,18.98901 0.40406,30.30458 4.48977,-9.45301 8.27178,-18.98466 3.23249,-29.49645 -1.21218,-0.26938 -2.42437,-0.53875 -3.63655,-0.80813 z"
       style="fill:#000000;fill-opacity:0.13242008;stroke:none;filter:url(#filter5388)"
       transform="matrix(0.39306485,0,0,0.39306485,73.180261,245.68372)" />
    <path
       transform="matrix(-0.39306485,0,0,0.39306485,161.15215,189.96485)"
       style="fill:#000000;fill-opacity:0.17351601;stroke:none;filter:url(#filter8828)"
       d="m 27.476149,186.99699 c 3.400713,9.16838 4.518519,18.98901 0.404061,30.30458 4.489769,-9.45301 8.271778,-18.98466 3.232489,-29.49645 -1.212183,-0.26938 -2.424367,-0.53875 -3.63655,-0.80813 z"
       id="path6217"
       inkscape:connector-curvature="0"
       sodipodi:nodetypes="cccc" />
    <path
       sodipodi:type="arc"
       style="fill:#ffffff;fill-opacity:0.28310505;fill-rule:evenodd;stroke:none;filter:url(#filter5291)"
       id="path7766"
       sodipodi:cx="-34.285713"
       sodipodi:cy="237.85715"
       sodipodi:rx="9.1428576"
       sodipodi:ry="15.285714"
       d="m -25.142856,237.85715 a 9.1428576,15.285714 0 1 1 -18.285715,0 9.1428576,15.285714 0 1 1 18.285715,0 z"
       transform="matrix(0.44545356,0,0,0.45413274,179.66392,159.64466)" />
    <path
       transform="matrix(0.39306485,0,0,0.39306485,70.023534,245.30491)"
       style="fill:#000000;fill-opacity:0.20547946;stroke:none;filter:url(#filter5267)"
       d="m 212.1036,136.82012 c -9.813,1.40244 -31.04539,-53.626137 -18.7046,-57.743847 -3.93297,6.82791 9.13858,48.886547 18.7046,57.743847 z"
       id="path7842"
       inkscape:connector-curvature="0"
       sodipodi:nodetypes="ccc" />
    <path
       transform="matrix(0.24075024,-0.03576085,0.10676651,0.33585205,153.89929,181.54503)"
       d="m -25.142856,237.85715 a 9.1428576,15.285714 0 1 1 -18.285715,0 9.1428576,15.285714 0 1 1 18.285715,0 z"
       sodipodi:ry="15.285714"
       sodipodi:rx="9.1428576"
       sodipodi:cy="237.85715"
       sodipodi:cx="-34.285713"
       id="path8756"
       style="fill:#ffffff;fill-opacity:0.32876713;fill-rule:evenodd;stroke:none;filter:url(#filter5291)"
       sodipodi:type="arc"
       inkscape:transform-center-x="1.4226768" />
    <path
       inkscape:transform-center-x="1.2587502"
       sodipodi:type="arc"
       style="fill:#ffffff;fill-opacity:0.2557078;fill-rule:evenodd;stroke:none;filter:url(#filter5291)"
       id="path8758"
       sodipodi:cx="-34.285713"
       sodipodi:cy="237.85715"
       sodipodi:rx="9.1428576"
       sodipodi:ry="15.285714"
       d="m -25.142856,237.85715 a 9.1428576,15.285714 0 1 1 -18.285715,0 9.1428576,15.285714 0 1 1 18.285715,0 z"
       transform="matrix(0.21301079,-0.00800823,0.09446478,0.07521016,145.45948,238.26157)" />
    <path
       transform="matrix(0.21301079,-0.00800823,0.09446478,0.07521016,134.85288,240.28188)"
       d="m -25.142856,237.85715 a 9.1428576,15.285714 0 1 1 -18.285715,0 9.1428576,15.285714 0 1 1 18.285715,0 z"
       sodipodi:ry="15.285714"
       sodipodi:rx="9.1428576"
       sodipodi:cy="237.85715"
       sodipodi:cx="-34.285713"
       id="path8760"
       style="fill:#ffffff;fill-opacity:0.2557078;fill-rule:evenodd;stroke:none;filter:url(#filter5291)"
       sodipodi:type="arc"
       inkscape:transform-center-x="1.2587502" />
    <path
       style="fill:#000000;fill-opacity:0.28310505;stroke:none;filter:url(#filter8792)"
       d="m 148.70349,257.00323 c -6.45918,-1.76494 -6.59609,12.13213 -3.59867,18.90878 -0.62058,1.59186 0.0887,5.87039 0.25254,8.08122 1.1162,-2.77753 1.51195,-7.69212 0.47351,-9.75429 -0.85102,-6.39763 -2.70896,-13.96324 2.87262,-17.23571 z"
       id="path8762"
       inkscape:connector-curvature="0"
       sodipodi:nodetypes="ccccc" />
  </g>
</svg>
